<svg width="24" height="24" viewBox="0 0 24 24" fill="none" xmlns="http://www.w3.org/2000/svg">
<path d="M3 7.5C2.72386 7.5 2.5 7.72386 2.5 8C2.5 8.27614 2.72386 8.5 3 8.5L3 8L3 7.5ZM21 16.5C21.2761 16.5 21.5 16.2761 21.5 16C21.5 15.7239 21.2761 15.5 21 15.5V16V16.5ZM3 8L3 8.5L15 8.5V8V7.5L3 7.5L3 8ZM9 16V16.5L21 16.5V16V15.5L9 15.5V16ZM21 8H20.5C20.5 9.38071 19.3807 10.5 18 10.5V11V11.5C19.933 11.5 21.5 9.933 21.5 8H21ZM18 11V10.5C16.6193 10.5 15.5 9.38071 15.5 8H15H14.5C14.5 9.933 16.067 11.5 18 11.5V11ZM15 8H15.5C15.5 6.61929 16.6193 5.5 18 5.5V5V4.5C16.067 4.5 14.5 6.067 14.5 8H15ZM18 5V5.5C19.3807 5.5 20.5 6.61929 20.5 8H21H21.5C21.5 6.067 19.933 4.5 18 4.5V5ZM9 16H8.5C8.5 17.3807 7.38071 18.5 6 18.5V19V19.5C7.933 19.5 9.5 17.933 9.5 16H9ZM6 19V18.5C4.61929 18.5 3.5 17.3807 3.5 16H3H2.5C2.5 17.933 4.067 19.5 6 19.5V19ZM3 16H3.5C3.5 14.6193 4.61929 13.5 6 13.5V13V12.5C4.067 12.5 2.5 14.067 2.5 16H3ZM6 13V13.5C7.38071 13.5 8.5 14.6193 8.5 16H9H9.5C9.5 14.067 7.933 12.5 6 12.5V13Z" fill="#737373"/>
</svg>
